<svg width="37" height="50" viewBox="0 0 37 50" fill="none" xmlns="http://www.w3.org/2000/svg">
<path d="M22.5 2H15.6143H7.62332H3C2.44772 2 2 2.44356 2 2.99584C2 7.6087 2 27.2322 2 40.3851C2 42.505 2 45.472 2 47.0013C2 47.5535 2.44771 48 3 48H33.987C34.5444 48 34.9941 47.5444 34.987 46.9871L34.902 40.3851C34.902 40.3851 34.6624 24.1234 34.5 11.5M22.5 2V10.5C22.5 11.0523 22.9477 11.5 23.5 11.5H34.5M22.5 2L34.5 11.5" stroke="white" stroke-width="4" stroke-linecap="round"/>
<path d="M26 40L26 21" stroke="white" stroke-width="3" stroke-linecap="round"/>
<path d="M21 40V25" stroke="white" stroke-width="3" stroke-linecap="round"/>
<path d="M16 40V28" stroke="white" stroke-width="3" stroke-linecap="round"/>
<path d="M11 40L11 32" stroke="white" stroke-width="3" stroke-linecap="round"/>
<path d="M24.5856 15.5858L25.9998 16.2361L27.414 15.5858L26.7637 17L27.414 18.4142L25.9998 17.7639L24.5856 18.4142L25.2359 17L24.5856 15.5858Z" fill="white"/>
</svg>
