<svg width="50" height="50" viewBox="0 0 50 50" fill="none" xmlns="http://www.w3.org/2000/svg">
<path d="M46.9887 19.8516H45.0075C43.3912 19.8516 42.0356 18.4587 42.0356 16.8055C42.0356 15.9724 42.3876 15.2174 43.0132 14.6576L44.2906 13.408C45.5549 12.1583 45.5549 10.1146 44.2906 8.86488L41.3839 5.98802C40.8104 5.41526 39.9632 5.0768 39.1029 5.0768C38.2427 5.0768 37.4085 5.41526 36.8219 5.98802L35.5967 7.21166C35.0102 7.86254 34.2281 8.21401 33.3809 8.21401C31.7125 8.21401 30.3178 6.86019 30.3178 5.25905V3.26738C30.3178 1.51002 28.8971 0 27.1244 0H23.162C21.3893 0 19.9816 1.49701 19.9816 3.26738V5.24603C19.9816 6.84718 18.5869 8.20099 16.9185 8.20099C16.0843 8.20099 15.3153 7.84952 14.7548 7.2377L13.4905 5.98802C12.917 5.40224 12.0698 5.0768 11.2095 5.0768C10.3492 5.0768 9.51505 5.41526 8.9285 5.98802L5.99578 8.85186C4.74449 10.1015 4.74449 12.1453 5.99578 13.3819L7.22101 14.6056C7.87272 15.1914 8.23768 15.9724 8.23768 16.8055C8.23768 18.4718 6.88211 19.8516 5.26586 19.8516H3.28465C1.49894 19.8516 0 21.2445 0 23.0148V24.9935V26.9721C0 28.7295 1.49894 30.1354 3.28465 30.1354H5.26586C6.88211 30.1354 8.23768 31.5282 8.23768 33.1815C8.23768 34.0146 7.87272 34.7956 7.22101 35.3814L5.99578 36.592C4.74449 37.8417 4.74449 39.8854 5.99578 41.1221L8.90243 44.012C9.47594 44.5978 10.3232 44.9232 11.1834 44.9232C12.0437 44.9232 12.8779 44.5847 13.4644 44.012L14.7288 42.7623C15.2762 42.1505 16.0583 41.799 16.8925 41.799C18.5609 41.799 19.9555 43.1528 19.9555 44.754V46.7326C19.9555 48.49 21.3632 50 23.1489 50H27.1114C28.884 50 30.2917 48.503 30.2917 46.7326V44.754C30.2917 43.1528 31.6864 41.799 33.3548 41.799C34.189 41.799 34.971 42.1635 35.5706 42.8013L36.7958 44.025C37.3824 44.5978 38.2166 44.9362 39.0769 44.9362C39.9371 44.9362 40.7713 44.5978 41.3579 44.025L44.2645 41.1351C45.5158 39.8854 45.5158 37.8417 44.2645 36.592L42.9871 35.3424C42.3615 34.7826 42.0096 34.0146 42.0096 33.1945C42.0096 31.5282 43.3651 30.1484 44.9814 30.1484H46.9626C48.7353 30.1484 49.9996 28.7555 49.9996 26.9852V24.9935V23.0148C50.0257 21.2445 48.7613 19.8516 46.9887 19.8516ZM35.5576 24.9935C35.5576 30.7342 30.9043 35.4074 25.1301 35.4074C19.3559 35.4074 14.7027 30.7342 14.7027 24.9935C14.7027 19.2528 19.3559 14.5795 25.1301 14.5795C30.9043 14.5795 35.5576 19.2528 35.5576 24.9935Z" fill="white"/>
<ellipse cx="24.7969" cy="25.0381" rx="14.7969" ry="14.0381" fill="black"/>
<path d="M17.7296 29C17.6756 29 17.6306 28.982 17.5946 28.946C17.5586 28.904 17.5406 28.859 17.5406 28.811C17.5406 28.781 17.5436 28.754 17.5496 28.73L19.6916 22.943C19.7096 22.877 19.7456 22.82 19.7996 22.772C19.8536 22.724 19.9286 22.7 20.0246 22.7H21.1766C21.2726 22.7 21.3476 22.724 21.4016 22.772C21.4556 22.82 21.4916 22.877 21.5096 22.943L23.6516 28.73C23.6576 28.754 23.6606 28.781 23.6606 28.811C23.6606 28.859 23.6426 28.904 23.6066 28.946C23.5706 28.982 23.5256 29 23.4716 29H22.5356C22.4456 29 22.3796 28.979 22.3376 28.937C22.2956 28.895 22.2686 28.856 22.2566 28.82L21.8696 27.812H19.3316L18.9446 28.82C18.9326 28.856 18.9056 28.895 18.8636 28.937C18.8216 28.979 18.7556 29 18.6656 29H17.7296ZM19.6646 26.651H21.5276L20.6006 24.059L19.6646 26.651ZM24.6605 29C24.5945 29 24.5405 28.979 24.4985 28.937C24.4565 28.895 24.4355 28.841 24.4355 28.775V22.925C24.4355 22.859 24.4565 22.805 24.4985 22.763C24.5405 22.721 24.5945 22.7 24.6605 22.7H27.1175C27.6035 22.7 28.0235 22.775 28.3775 22.925C28.7375 23.075 29.0165 23.303 29.2145 23.609C29.4185 23.909 29.5205 24.284 29.5205 24.734C29.5205 25.19 29.4185 25.568 29.2145 25.868C29.0165 26.162 28.7375 26.381 28.3775 26.525C28.0235 26.669 27.6035 26.741 27.1175 26.741H25.9115V28.775C25.9115 28.841 25.8905 28.895 25.8485 28.937C25.8065 28.979 25.7525 29 25.6865 29H24.6605ZM25.8845 25.625H27.0725C27.3785 25.625 27.6155 25.55 27.7835 25.4C27.9575 25.25 28.0445 25.025 28.0445 24.725C28.0445 24.461 27.9665 24.245 27.8105 24.077C27.6605 23.909 27.4145 23.825 27.0725 23.825H25.8845V25.625ZM30.6635 29C30.5975 29 30.5435 28.979 30.5015 28.937C30.4595 28.895 30.4385 28.841 30.4385 28.775V22.925C30.4385 22.859 30.4595 22.805 30.5015 22.763C30.5435 22.721 30.5975 22.7 30.6635 22.7H31.6805C31.7465 22.7 31.8005 22.721 31.8425 22.763C31.8845 22.805 31.9055 22.859 31.9055 22.925V28.775C31.9055 28.841 31.8845 28.895 31.8425 28.937C31.8005 28.979 31.7465 29 31.6805 29H30.6635Z" fill="white"/>
</svg>
