<svg width="46" height="50" viewBox="0 0 46 50" fill="none" xmlns="http://www.w3.org/2000/svg">
<path d="M21.2954 2.90479C22.5179 2.13962 24.058 2.092 25.3257 2.77979L41.7827 11.7095C43.072 12.4091 43.8755 13.7582 43.8755 15.2251V33.6587C43.8755 35.0583 43.1442 36.3569 41.9468 37.0815L25.4165 47.0845C24.1434 47.8548 22.548 47.8548 21.2749 47.0845L4.74463 37.0815C3.5472 36.3569 2.81592 35.0583 2.81592 33.6587V16.689C2.81592 15.3109 3.52577 14.0296 4.69385 13.2983L21.2954 2.90479Z" fill="black" stroke="white" stroke-width="4"/>
<ellipse cx="23.3766" cy="5.01213" rx="3.09341" ry="3.09343" fill="white"/>
<ellipse cx="23.4615" cy="4.92485" rx="1.55326" ry="1.55327" fill="black"/>
<ellipse cx="6.36245" cy="33.884" rx="3.09341" ry="3.09343" fill="white"/>
<ellipse cx="6.20316" cy="33.9187" rx="1.55326" ry="1.55327" fill="black"/>
<ellipse cx="40.9064" cy="33.884" rx="3.09341" ry="3.09343" fill="white"/>
<ellipse cx="41.066" cy="33.9187" rx="1.55326" ry="1.55327" fill="black"/>
<path d="M17.5826 14.3765H16.7681C15.6635 14.3765 14.7681 15.2673 14.7681 16.3719C14.7681 19.9046 14.7681 27.3848 14.7681 32.6716C14.7681 33.1612 14.7681 33.7457 14.7681 34.301C14.7681 35.4056 15.6635 36.301 16.7681 36.301H29.2575C30.3726 36.301 31.2724 35.389 31.2573 34.2739L31.2356 32.6716L31.0151 16.3494C31.0003 15.2555 30.1093 14.3765 29.0153 14.3765H21.5821M17.5826 14.3765V18.8536C17.5826 19.2793 18.0806 19.5102 18.4055 19.2353L19.197 18.5655C19.3782 18.4122 19.6422 18.4074 19.8289 18.5541L20.7732 19.296C21.1012 19.5538 21.5821 19.3201 21.5821 18.9029V14.3765M17.5826 14.3765H21.5821" stroke="white" stroke-width="2"/>
<path d="M14.749 34.0616C14.749 34.0616 14.8137 32.4264 16.3627 32.2869C17.9118 32.1473 30.8205 32.2869 30.8205 32.2869" stroke="white" stroke-width="2"/>
</svg>
