<svg width="43" height="50" viewBox="0 0 43 50" fill="none" xmlns="http://www.w3.org/2000/svg">
<path d="M7.90541 2H6C3.79086 2 2 3.78634 2 5.99548C2 13.3258 2 29.1965 2 40.3851C2 41.4704 2 42.7777 2 44.0004C2 46.2095 3.79086 48 6 48H32.601C34.8313 48 36.6308 46.176 36.6006 43.946L36.5525 40.3851L36.0871 5.94595C36.0575 3.75809 34.2755 2 32.0875 2H16.2973M7.90541 2V11.4993C7.90541 12.3507 8.90143 12.8126 9.55135 12.2627L11.3234 10.7632C11.6858 10.4566 12.2139 10.447 12.5872 10.7403L14.6795 12.3843C15.3356 12.8998 16.2973 12.4324 16.2973 11.5979V2M7.90541 2H16.2973" stroke="white" stroke-width="4"/>
<path d="M2.02684 43C2.02684 43 1.52495 40.151 4.86126 40.0464C8.19758 39.9419 36 40.0464 36 40.0464" stroke="white" stroke-width="4"/>
<path d="M19.829 20.5831L19.1934 25.292C19.0999 25.9847 19.7279 26.5572 20.409 26.4002L25.2175 25.2919L19.829 20.5831Z" fill="black"/>
<path d="M19.829 20.5831L25.2175 25.2919L38.8799 11.9755L33.9248 7.02034L19.829 20.5831Z" fill="black"/>
<path d="M40.9409 9.381C41.5378 6.85373 39.3318 4.55066 36.7812 5.03832L36.5973 5.07348C36.0686 5.17457 35.5807 5.42705 35.1928 5.80026L33.9248 7.02034L38.8799 11.9755L40.2013 10.6876C40.567 10.3312 40.8235 9.87795 40.9409 9.381V9.381Z" fill="black"/>
<path d="M19.829 20.5831L19.1934 25.292C19.0999 25.9847 19.7279 26.5572 20.409 26.4002L25.2175 25.2919M19.829 20.5831L25.2175 25.2919M19.829 20.5831L33.9248 7.02034M25.2175 25.2919L38.8799 11.9755M33.9248 7.02034L35.1928 5.80026C35.5807 5.42705 36.0686 5.17457 36.5973 5.07348L36.7812 5.03832C39.3318 4.55066 41.5378 6.85373 40.9409 9.381V9.381C40.8235 9.87795 40.567 10.3312 40.2013 10.6876L38.8799 11.9755M33.9248 7.02034L38.8799 11.9755" stroke="white" stroke-width="2"/>
</svg>
