<svg width="50" height="43" viewBox="0 0 50 43" fill="none" xmlns="http://www.w3.org/2000/svg">
<path d="M26.475 11.7404H26.0019C25.6159 11.7404 25.2922 11.4078 25.2922 11.013C25.2922 10.8141 25.3763 10.6338 25.5257 10.5001L25.8307 10.2017C26.1326 9.90332 26.1326 9.41529 25.8307 9.11687L25.1366 8.4299C24.9996 8.29313 24.7973 8.21231 24.5919 8.21231C24.3865 8.21231 24.1873 8.29313 24.0472 8.4299L23.7546 8.7221C23.6146 8.87752 23.4278 8.96145 23.2255 8.96145C22.8271 8.96145 22.4941 8.63817 22.4941 8.25582V7.78023C22.4941 7.36058 22.1548 7 21.7315 7H20.7853C20.362 7 20.0259 7.35747 20.0259 7.78023V8.25272C20.0259 8.63506 19.6928 8.95834 19.2944 8.95834C19.0952 8.95834 18.9116 8.87441 18.7777 8.72831L18.4758 8.4299C18.3389 8.29002 18.1366 8.21231 17.9311 8.21231C17.7257 8.21231 17.5265 8.29313 17.3865 8.4299L16.6861 9.11376C16.3873 9.41218 16.3873 9.90021 16.6861 10.1955L16.9787 10.4877C17.1343 10.6276 17.2215 10.8141 17.2215 11.013C17.2215 11.4109 16.8978 11.7404 16.5118 11.7404H16.0387C15.6123 11.7404 15.2544 12.073 15.2544 12.4958V12.9683V13.4408C15.2544 13.8604 15.6123 14.1961 16.0387 14.1961H16.5118C16.8978 14.1961 17.2215 14.5287 17.2215 14.9235C17.2215 15.1224 17.1343 15.309 16.9787 15.4488L16.6861 15.7379C16.3873 16.0363 16.3873 16.5244 16.6861 16.8197L17.3802 17.5098C17.5172 17.6496 17.7195 17.7274 17.9249 17.7274C18.1303 17.7274 18.3295 17.6465 18.4696 17.5098L18.7715 17.2113C18.9022 17.0652 19.089 16.9813 19.2882 16.9813C19.6866 16.9813 20.0196 17.3046 20.0196 17.6869V18.1594C20.0196 18.5791 20.3558 18.9397 20.7822 18.9397H21.7284C22.1517 18.9397 22.4879 18.5822 22.4879 18.1594V17.6869C22.4879 17.3046 22.8209 16.9813 23.2193 16.9813C23.4185 16.9813 23.6052 17.0684 23.7484 17.2207L24.041 17.5129C24.1811 17.6496 24.3803 17.7305 24.5857 17.7305C24.7911 17.7305 24.9903 17.6496 25.1304 17.5129L25.8245 16.8228C26.1233 16.5244 26.1233 16.0363 25.8245 15.7379L25.5194 15.4395C25.37 15.3058 25.286 15.1224 25.286 14.9266C25.286 14.5287 25.6097 14.1992 25.9956 14.1992H26.4687C26.892 14.1992 27.194 13.8666 27.194 13.4439V12.9683V12.4958C27.2002 12.073 26.8983 11.7404 26.475 11.7404ZM23.7453 12.9683C23.7453 14.3391 22.6341 15.4551 21.2553 15.4551C19.8765 15.4551 18.7653 14.3391 18.7653 12.9683C18.7653 11.5974 19.8765 10.4815 21.2553 10.4815C22.6341 10.4815 23.7453 11.5974 23.7453 12.9683Z" fill="white"/>
<circle cx="21.1338" cy="13.0601" r="3.34672" fill="black"/>
<path d="M15.9461 17.8943H15.6532C15.4143 17.8943 15.2139 17.6884 15.2139 17.444C15.2139 17.3208 15.2659 17.2092 15.3584 17.1265L15.5472 16.9417C15.7341 16.757 15.7341 16.4549 15.5472 16.2702L15.1176 15.8449C15.0328 15.7602 14.9075 15.7102 14.7804 15.7102C14.6532 15.7102 14.5299 15.7602 14.4432 15.8449L14.2621 16.0258C14.1754 16.122 14.0597 16.1739 13.9345 16.1739C13.6879 16.1739 13.4817 15.9738 13.4817 15.7371V15.4427C13.4817 15.1829 13.2717 14.9597 13.0096 14.9597H12.4239C12.1619 14.9597 11.9538 15.181 11.9538 15.4427V15.7352C11.9538 15.9719 11.7476 16.172 11.501 16.172C11.3777 16.172 11.264 16.1201 11.1811 16.0296L10.9942 15.8449C10.9094 15.7583 10.7842 15.7102 10.657 15.7102C10.5299 15.7102 10.4066 15.7602 10.3198 15.8449L9.88632 16.2682C9.70135 16.453 9.70135 16.7551 9.88632 16.9379L10.0674 17.1188C10.1638 17.2054 10.2177 17.3208 10.2177 17.444C10.2177 17.6903 10.0173 17.8943 9.77842 17.8943H9.48555C9.22158 17.8943 9 18.1002 9 18.3619V18.6544V18.9469C9 19.2066 9.22158 19.4145 9.48555 19.4145H9.77842C10.0173 19.4145 10.2177 19.6204 10.2177 19.8647C10.2177 19.9879 10.1638 20.1034 10.0674 20.19L9.88632 20.3689C9.70135 20.5536 9.70135 20.8558 9.88632 21.0386L10.316 21.4658C10.4008 21.5524 10.526 21.6005 10.6532 21.6005C10.7804 21.6005 10.9037 21.5504 10.9904 21.4658L11.1773 21.281C11.2582 21.1906 11.3738 21.1386 11.4971 21.1386C11.7437 21.1386 11.9499 21.3388 11.9499 21.5754V21.8679C11.9499 22.1277 12.158 22.3509 12.422 22.3509H13.0077C13.2698 22.3509 13.4779 22.1296 13.4779 21.8679V21.5754C13.4779 21.3388 13.684 21.1386 13.9307 21.1386C14.054 21.1386 14.1696 21.1925 14.2582 21.2868L14.4393 21.4677C14.526 21.5524 14.6493 21.6024 14.7765 21.6024C14.9037 21.6024 15.027 21.5524 15.1137 21.4677L15.5434 21.0405C15.7283 20.8558 15.7283 20.5536 15.5434 20.3689L15.3545 20.1842C15.2621 20.1014 15.21 19.9879 15.21 19.8667C15.21 19.6204 15.4104 19.4164 15.6493 19.4164H15.9422C16.2043 19.4164 16.3912 19.2105 16.3912 18.9488V18.6544V18.3619C16.395 18.1002 16.2081 17.8943 15.9461 17.8943ZM14.2563 18.6544C14.2563 19.503 13.5684 20.1938 12.7148 20.1938C11.8613 20.1938 11.1734 19.503 11.1734 18.6544C11.1734 17.8057 11.8613 17.1149 12.7148 17.1149C13.5684 17.1149 14.2563 17.8057 14.2563 18.6544Z" fill="white"/>
<circle cx="12.6397" cy="18.7114" r="2.07178" fill="black"/>
<path d="M14.3772 10.7372H14.1744C14.009 10.7372 13.8703 10.5946 13.8703 10.4254C13.8703 10.3402 13.9063 10.2629 13.9703 10.2056L14.1011 10.0777C14.2304 9.94985 14.2304 9.74069 14.1011 9.6128L13.8036 9.31838C13.7449 9.25976 13.6582 9.22513 13.5702 9.22513C13.4821 9.22513 13.3967 9.25976 13.3367 9.31838L13.2113 9.44361C13.1513 9.51022 13.0713 9.54619 12.9846 9.54619C12.8138 9.54619 12.6711 9.40764 12.6711 9.24378V9.03995C12.6711 8.8601 12.5257 8.70557 12.3443 8.70557H11.9388C11.7573 8.70557 11.6133 8.85877 11.6133 9.03995V9.24244C11.6133 9.40631 11.4705 9.54486 11.2998 9.54486C11.2144 9.54486 11.1357 9.50889 11.0784 9.44627L10.949 9.31838C10.8903 9.25843 10.8036 9.22513 10.7155 9.22513C10.6275 9.22513 10.5421 9.25976 10.4821 9.31838L10.182 9.61147C10.0539 9.73936 10.0539 9.94851 10.182 10.0751L10.3074 10.2003C10.3741 10.2602 10.4114 10.3402 10.4114 10.4254C10.4114 10.596 10.2727 10.7372 10.1073 10.7372H9.90451C9.72176 10.7372 9.56836 10.8797 9.56836 11.0609V11.2634V11.4659C9.56836 11.6457 9.72176 11.7896 9.90451 11.7896H10.1073C10.2727 11.7896 10.4114 11.9322 10.4114 12.1014C10.4114 12.1866 10.3741 12.2665 10.3074 12.3265L10.182 12.4504C10.0539 12.5783 10.0539 12.7874 10.182 12.914L10.4794 13.2097C10.5381 13.2697 10.6248 13.303 10.7129 13.303C10.8009 13.303 10.8863 13.2684 10.9463 13.2097L11.0757 13.0819C11.1317 13.0192 11.2118 12.9833 11.2971 12.9833C11.4679 12.9833 11.6106 13.1218 11.6106 13.2857V13.4882C11.6106 13.668 11.7547 13.8226 11.9374 13.8226H12.3429C12.5243 13.8226 12.6684 13.6694 12.6684 13.4882V13.2857C12.6684 13.1218 12.8111 12.9833 12.9819 12.9833C13.0673 12.9833 13.1473 13.0206 13.2087 13.0859L13.334 13.2111C13.3941 13.2697 13.4794 13.3043 13.5675 13.3043C13.6555 13.3043 13.7409 13.2697 13.8009 13.2111L14.0984 12.9153C14.2264 12.7874 14.2264 12.5783 14.0984 12.4504L13.9677 12.3225C13.9036 12.2652 13.8676 12.1866 13.8676 12.1027C13.8676 11.9322 14.0063 11.791 14.1718 11.791H14.3745C14.5559 11.791 14.6853 11.6484 14.6853 11.4672V11.2634V11.0609C14.688 10.8797 14.5586 10.7372 14.3772 10.7372ZM13.2073 11.2634C13.2073 11.8509 12.7311 12.3292 12.1402 12.3292C11.5492 12.3292 11.073 11.8509 11.073 11.2634C11.073 10.6759 11.5492 10.1976 12.1402 10.1976C12.7311 10.1976 13.2073 10.6759 13.2073 11.2634Z" fill="white"/>
<circle cx="12.0886" cy="11.3027" r="1.43431" fill="black"/>
<path d="M24.5993 25.7603C24.5993 24.6557 23.7038 23.7603 22.5993 23.7603H18.8889L18.7119 28.6857C18.673 29.7702 19.5416 30.6706 20.6268 30.6706V30.6706H24.5993V25.7603Z" fill="white"/>
<path d="M18.8889 23.7603H22.5993C23.7038 23.7603 24.5993 24.6557 24.5993 25.7603V30.6706M18.8889 23.7603L18.7119 28.6857C18.673 29.7702 19.5416 30.6706 20.6268 30.6706V30.6706M18.8889 23.7603H26.3422C26.8196 23.7603 27.2813 23.5895 27.6438 23.2788L29.4908 21.6956C30.7881 20.5835 32.7924 21.5053 32.7924 23.214V24.7396C32.7924 25.4709 33.3852 26.0637 34.1165 26.0637V26.0637C34.4822 26.0637 34.7786 26.3602 34.7786 26.7258V27.7051C34.7786 28.0708 34.4822 28.3672 34.1165 28.3672V28.3672C33.3852 28.3672 32.7924 28.96 32.7924 29.6913V31.5315C32.7924 33.1307 31.0085 34.0831 29.6797 33.1933L27.3199 31.6133C27.1621 31.5077 26.9901 31.4251 26.809 31.3679L24.5993 30.6706M24.5993 30.6706H20.6268M24.5993 30.6706L24.2527 34.4889C24.1678 35.4247 23.3832 36.1413 22.4435 36.1413V36.1413C21.4402 36.1413 20.6268 35.328 20.6268 34.3246V31.4541V30.6706" stroke="white" stroke-width="2" stroke-linecap="round"/>
<path d="M38.1016 23.5771L40.0001 22.0066" stroke="white" stroke-width="2" stroke-linecap="round" stroke-linejoin="round"/>
<path d="M38.1016 26.718H40.0001" stroke="white" stroke-width="2" stroke-linecap="round" stroke-linejoin="round"/>
<path d="M38.1016 29.8591L39.5255 31.4297" stroke="white" stroke-width="2" stroke-linecap="round" stroke-linejoin="round"/>
<path d="M44 2C46.2091 2 48 3.79086 48 6V37C48 39.2091 46.2091 41 44 41H6C3.79086 41 2 39.2091 2 37V6C2 3.79086 3.79086 2 6 2H44Z" stroke="white" stroke-width="4"/>
</svg>
