<svg width="50" height="50" viewBox="0 0 50 50" fill="none" xmlns="http://www.w3.org/2000/svg">
<path d="M46.9887 19.8516H45.0075C43.3912 19.8516 42.0356 18.4587 42.0356 16.8055C42.0356 15.9724 42.3876 15.2174 43.0132 14.6576L44.2906 13.408C45.5549 12.1583 45.5549 10.1146 44.2906 8.86488L41.3839 5.98802C40.8104 5.41526 39.9632 5.0768 39.1029 5.0768C38.2427 5.0768 37.4085 5.41526 36.8219 5.98802L35.5967 7.21166C35.0102 7.86254 34.2281 8.21401 33.3809 8.21401C31.7125 8.21401 30.3178 6.86019 30.3178 5.25905V3.26738C30.3178 1.51002 28.8971 0 27.1244 0H23.162C21.3893 0 19.9816 1.49701 19.9816 3.26738V5.24603C19.9816 6.84718 18.5869 8.20099 16.9185 8.20099C16.0843 8.20099 15.3153 7.84952 14.7548 7.2377L13.4905 5.98802C12.917 5.40224 12.0698 5.0768 11.2095 5.0768C10.3492 5.0768 9.51505 5.41526 8.9285 5.98802L5.99578 8.85186C4.74449 10.1015 4.74449 12.1453 5.99578 13.3819L7.22101 14.6056C7.87272 15.1914 8.23768 15.9724 8.23768 16.8055C8.23768 18.4718 6.88211 19.8516 5.26586 19.8516H3.28465C1.49894 19.8516 0 21.2445 0 23.0148V24.9935V26.9721C0 28.7295 1.49894 30.1354 3.28465 30.1354H5.26586C6.88211 30.1354 8.23768 31.5282 8.23768 33.1815C8.23768 34.0146 7.87272 34.7956 7.22101 35.3814L5.99578 36.592C4.74449 37.8417 4.74449 39.8854 5.99578 41.1221L8.90243 44.012C9.47594 44.5978 10.3232 44.9232 11.1834 44.9232C12.0437 44.9232 12.8779 44.5847 13.4644 44.012L14.7288 42.7623C15.2762 42.1505 16.0583 41.799 16.8925 41.799C18.5609 41.799 19.9555 43.1528 19.9555 44.754V46.7326C19.9555 48.49 21.3632 50 23.1489 50H27.1114C28.884 50 30.2917 48.503 30.2917 46.7326V44.754C30.2917 43.1528 31.6864 41.799 33.3548 41.799C34.189 41.799 34.971 42.1635 35.5706 42.8013L36.7958 44.025C37.3824 44.5978 38.2166 44.9362 39.0769 44.9362C39.9371 44.9362 40.7713 44.5978 41.3579 44.025L44.2645 41.1351C45.5158 39.8854 45.5158 37.8417 44.2645 36.592L42.9871 35.3424C42.3615 34.7826 42.0096 34.0146 42.0096 33.1945C42.0096 31.5282 43.3651 30.1484 44.9814 30.1484H46.9626C48.7353 30.1484 49.9996 28.7555 49.9996 26.9852V24.9935V23.0148C50.0257 21.2445 48.7613 19.8516 46.9887 19.8516ZM35.5576 24.9935C35.5576 30.7342 30.9043 35.4074 25.1301 35.4074C19.3559 35.4074 14.7027 30.7342 14.7027 24.9935C14.7027 19.2528 19.3559 14.5795 25.1301 14.5795C30.9043 14.5795 35.5576 19.2528 35.5576 24.9935Z" fill="white"/>
<ellipse cx="24.7969" cy="25.0381" rx="14.7969" ry="14.0381" fill="black"/>
<path d="M18.4253 29.09C17.8613 29.09 17.3813 28.997 16.9853 28.811C16.5953 28.619 16.2923 28.343 16.0763 27.983C15.8603 27.617 15.7403 27.173 15.7163 26.651C15.7103 26.405 15.7073 26.141 15.7073 25.859C15.7073 25.577 15.7103 25.307 15.7163 25.049C15.7403 24.533 15.8603 24.095 16.0763 23.735C16.2983 23.369 16.6073 23.09 17.0033 22.898C17.3993 22.706 17.8733 22.61 18.4253 22.61C18.8273 22.61 19.1933 22.661 19.5233 22.763C19.8533 22.865 20.1383 23.012 20.3783 23.204C20.6183 23.396 20.8043 23.621 20.9363 23.879C21.0683 24.137 21.1403 24.425 21.1523 24.743C21.1523 24.797 21.1313 24.842 21.0893 24.878C21.0533 24.914 21.0083 24.932 20.9543 24.932H19.9283C19.8563 24.932 19.7993 24.914 19.7573 24.878C19.7153 24.842 19.6823 24.782 19.6583 24.698C19.5683 24.344 19.4183 24.101 19.2083 23.969C18.9983 23.837 18.7373 23.771 18.4253 23.771C18.0533 23.771 17.7593 23.873 17.5433 24.077C17.3273 24.281 17.2103 24.62 17.1923 25.094C17.1743 25.586 17.1743 26.09 17.1923 26.606C17.2103 27.08 17.3273 27.419 17.5433 27.623C17.7593 27.827 18.0533 27.929 18.4253 27.929C18.7373 27.929 18.9983 27.863 19.2083 27.731C19.4243 27.593 19.5743 27.35 19.6583 27.002C19.6823 26.912 19.7153 26.852 19.7573 26.822C19.7993 26.786 19.8563 26.768 19.9283 26.768H20.9543C21.0083 26.768 21.0533 26.786 21.0893 26.822C21.1313 26.858 21.1523 26.903 21.1523 26.957C21.1403 27.275 21.0683 27.563 20.9363 27.821C20.8043 28.079 20.6183 28.304 20.3783 28.496C20.1383 28.688 19.8533 28.835 19.5233 28.937C19.1933 29.039 18.8273 29.09 18.4253 29.09ZM22.3886 29C22.3286 29 22.2746 28.979 22.2266 28.937C22.1846 28.895 22.1636 28.841 22.1636 28.775V22.925C22.1636 22.859 22.1846 22.805 22.2266 22.763C22.2746 22.721 22.3286 22.7 22.3886 22.7H23.2256C23.3156 22.7 23.3816 22.724 23.4236 22.772C23.4716 22.82 23.5046 22.856 23.5226 22.88L25.1786 25.931L26.8526 22.88C26.8646 22.856 26.8916 22.82 26.9336 22.772C26.9816 22.724 27.0506 22.7 27.1406 22.7H27.9776C28.0436 22.7 28.0976 22.721 28.1396 22.763C28.1816 22.805 28.2026 22.859 28.2026 22.925V28.775C28.2026 28.841 28.1816 28.895 28.1396 28.937C28.0976 28.979 28.0436 29 27.9776 29H27.0596C26.9996 29 26.9486 28.979 26.9066 28.937C26.8646 28.895 26.8436 28.841 26.8436 28.775V25.139L25.7006 27.281C25.6706 27.335 25.6316 27.383 25.5836 27.425C25.5356 27.467 25.4726 27.488 25.3946 27.488H24.9716C24.8936 27.488 24.8306 27.467 24.7826 27.425C24.7346 27.383 24.6956 27.335 24.6656 27.281L23.5226 25.139V28.775C23.5226 28.841 23.5016 28.895 23.4596 28.937C23.4176 28.979 23.3666 29 23.3066 29H22.3886ZM31.8056 29.09C31.2296 29.09 30.7466 29.006 30.3566 28.838C29.9726 28.67 29.6816 28.451 29.4836 28.181C29.2856 27.911 29.1806 27.623 29.1686 27.317C29.1686 27.269 29.1866 27.227 29.2226 27.191C29.2586 27.149 29.3036 27.128 29.3576 27.128H30.3206C30.3986 27.128 30.4586 27.146 30.5006 27.182C30.5426 27.212 30.5816 27.251 30.6176 27.299C30.6596 27.401 30.7256 27.5 30.8156 27.596C30.9116 27.692 31.0406 27.773 31.2026 27.839C31.3646 27.899 31.5656 27.929 31.8056 27.929C32.1956 27.929 32.4866 27.866 32.6786 27.74C32.8766 27.614 32.9756 27.443 32.9756 27.227C32.9756 27.071 32.9216 26.945 32.8136 26.849C32.7116 26.753 32.5466 26.666 32.3186 26.588C32.0966 26.51 31.7996 26.426 31.4276 26.336C30.9776 26.24 30.5936 26.117 30.2756 25.967C29.9636 25.811 29.7266 25.613 29.5646 25.373C29.4086 25.127 29.3306 24.824 29.3306 24.464C29.3306 24.104 29.4296 23.786 29.6276 23.51C29.8256 23.228 30.1046 23.009 30.4646 22.853C30.8246 22.691 31.2536 22.61 31.7516 22.61C32.1536 22.61 32.5076 22.664 32.8136 22.772C33.1256 22.88 33.3836 23.021 33.5876 23.195C33.7976 23.369 33.9566 23.555 34.0646 23.753C34.1726 23.951 34.2296 24.143 34.2356 24.329C34.2356 24.377 34.2176 24.422 34.1816 24.464C34.1456 24.5 34.1006 24.518 34.0466 24.518H33.0386C32.9786 24.518 32.9246 24.506 32.8766 24.482C32.8286 24.458 32.7896 24.416 32.7596 24.356C32.7236 24.2 32.6156 24.065 32.4356 23.951C32.2616 23.831 32.0336 23.771 31.7516 23.771C31.4576 23.771 31.2236 23.825 31.0496 23.933C30.8816 24.041 30.7976 24.206 30.7976 24.428C30.7976 24.572 30.8396 24.695 30.9236 24.797C31.0136 24.893 31.1606 24.98 31.3646 25.058C31.5746 25.13 31.8506 25.211 32.1926 25.301C32.7206 25.409 33.1496 25.538 33.4796 25.688C33.8096 25.838 34.0526 26.033 34.2086 26.273C34.3646 26.507 34.4426 26.804 34.4426 27.164C34.4426 27.566 34.3286 27.911 34.1006 28.199C33.8786 28.487 33.5696 28.709 33.1736 28.865C32.7836 29.015 32.3276 29.09 31.8056 29.09Z" fill="white"/>
</svg>
