<svg width="50" height="43" viewBox="0 0 50 43" fill="none" xmlns="http://www.w3.org/2000/svg">
<path d="M44 2C46.2091 2 48 3.79086 48 6V37C48 39.2091 46.2091 41 44 41H6C3.79086 41 2 39.2091 2 37V6C2 3.79086 3.79086 2 6 2H44Z" stroke="white" stroke-width="4"/>
<path d="M33.7608 15.7666L39.1855 21.1913C39.576 21.5818 39.576 22.215 39.1855 22.6055L33.7608 28.0302" stroke="white" stroke-width="2" stroke-linecap="round"/>
<path d="M16.1318 15.7666L10.7071 21.1913C10.3166 21.5818 10.3166 22.215 10.7071 22.6055L16.1318 28.0302" stroke="white" stroke-width="2" stroke-linecap="round"/>
<path d="M21.4976 28.7965L28.3958 15" stroke="white" stroke-width="2" stroke-linecap="round"/>
</svg>
