<svg width="50" height="43" viewBox="0 0 50 43" fill="none" xmlns="http://www.w3.org/2000/svg">
<path d="M27.2884 37.3205L10.2474 40.6386C9.70806 40.7436 9.1853 40.3952 9.07641 39.8566C8.83157 38.6456 8.40792 36.5501 8.1002 35.0281C6.11291 25.1986 3.16647 10.625 2.38501 6.75982C2.27557 6.21849 2.6278 5.7014 3.16913 5.59196L6.4308 4.93252L13.2526 3.49299" stroke="white" stroke-width="4" stroke-linecap="round"/>
<path d="M28.458 2.396H23.2803H17.2714H14.043C13.4907 2.396 13.043 2.83319 13.043 3.38548C13.043 7.27248 13.043 21.7607 13.043 31.5388C13.043 33.0433 13.043 35.1099 13.043 36.3214C13.043 36.8736 13.4907 37.3201 14.043 37.3201H36.8446C37.4019 37.3201 37.8517 36.8646 37.8446 36.3074L37.7838 31.5388C37.7838 31.5388 37.6036 19.1925 37.4815 9.60858M28.458 2.396V8.60858C28.458 9.16087 28.9058 9.60858 29.458 9.60858H37.4815M28.458 2.396L37.4815 9.60858" stroke="white" stroke-width="4" stroke-linecap="round"/>
<path d="M17.6382 16.1821H32.3431" stroke="white" stroke-width="2" stroke-linecap="round"/>
<path d="M17.6382 19.8582H32.3431" stroke="white" stroke-width="2" stroke-linecap="round"/>
<path d="M17.6382 23.9941H28.1417" stroke="white" stroke-width="2" stroke-linecap="round"/>
<path d="M29.4289 16.7178L28.8604 20.9296C28.7669 21.6223 29.3949 22.1948 30.076 22.0378L34.3812 21.0455L29.4289 16.7178Z" fill="black"/>
<path d="M29.4289 16.7178L34.3812 21.0455L46.9378 8.80695L42.3837 4.25291L29.4289 16.7178Z" fill="black"/>
<path d="M48.8319 6.42249C49.3805 4.09979 47.3531 1.98314 45.0089 2.43133L44.8399 2.46364C44.354 2.55654 43.9056 2.78859 43.5491 3.13159L42.3837 4.25291L46.9378 8.80695L48.1522 7.62331C48.4882 7.29575 48.724 6.87922 48.8319 6.42249V6.42249Z" fill="black"/>
<path d="M29.4289 16.7178L28.8604 20.9296C28.7669 21.6223 29.3949 22.1948 30.076 22.0378L34.3812 21.0455M29.4289 16.7178L34.3812 21.0455M29.4289 16.7178L42.3837 4.25291M34.3812 21.0455L46.9378 8.80695M42.3837 4.25291L43.5491 3.13159C43.9056 2.78859 44.354 2.55654 44.8399 2.46364L45.0089 2.43133C47.3531 1.98314 49.3805 4.09979 48.8319 6.42249V6.42249C48.724 6.87922 48.4882 7.29575 48.1522 7.62331L46.9378 8.80695M42.3837 4.25291L46.9378 8.80695" stroke="white" stroke-width="2"/>
</svg>
