<svg width="48" height="46" viewBox="0 0 48 46" fill="none" xmlns="http://www.w3.org/2000/svg">
<path d="M2.6292 44.0001H16.743C17.0468 44.0001 17.2593 43.6997 17.1582 43.4132C14.6796 36.3941 4.74807 36.4075 2.21467 43.407C2.11052 43.6947 2.32315 44.0001 2.6292 44.0001Z" stroke="white" stroke-width="4"/>
<path d="M11.6538 16.5116V3C11.6538 2.44772 12.1015 2 12.6538 2H45C45.5522 2 46 2.44772 46 3V40.0698C46 40.6221 45.5522 41.0698 45 41.0698H22.0703" stroke="white" stroke-width="4" stroke-linecap="round"/>
<path d="M17.981 18.2697V9.83716C17.981 9.28487 18.4287 8.83716 18.981 8.83716H38.6733C39.2256 8.83716 39.6733 9.28487 39.6733 9.83716V33.2325C39.6733 33.7848 39.2256 34.2325 38.6733 34.2325H24.5598" stroke="white" stroke-width="3" stroke-linecap="round"/>
<mask id="path-4-inside-1_105_546" fill="white">
<path d="M16.4615 27.3953C16.4615 31.7108 13.2242 35.2092 9.23077 35.2092C5.23733 35.2092 2 31.7108 2 27.3953C2 23.0797 5.23733 19.5813 9.23077 19.5813C13.2242 19.5813 16.4615 23.0797 16.4615 27.3953ZM4.896 27.3953C4.896 29.9824 6.83674 32.0796 9.23077 32.0796C11.6248 32.0796 13.5655 29.9824 13.5655 27.3953C13.5655 24.8081 11.6248 22.7109 9.23077 22.7109C6.83674 22.7109 4.896 24.8081 4.896 27.3953Z"/>
</mask>
<path d="M16.4615 27.3953C16.4615 31.7108 13.2242 35.2092 9.23077 35.2092C5.23733 35.2092 2 31.7108 2 27.3953C2 23.0797 5.23733 19.5813 9.23077 19.5813C13.2242 19.5813 16.4615 23.0797 16.4615 27.3953ZM4.896 27.3953C4.896 29.9824 6.83674 32.0796 9.23077 32.0796C11.6248 32.0796 13.5655 29.9824 13.5655 27.3953C13.5655 24.8081 11.6248 22.7109 9.23077 22.7109C6.83674 22.7109 4.896 24.8081 4.896 27.3953Z" fill="black" stroke="white" stroke-width="8" mask="url(#path-4-inside-1_105_546)"/>
<path d="M23.1815 18.2599H25.3552C26.4598 18.2599 27.3552 19.1553 27.3552 20.2599V24.2738M23.1815 18.2599L23.0438 22.8228C23.0198 23.617 23.6571 24.2738 24.4517 24.2738V24.2738M23.1815 18.2599H28.3295C28.867 18.2599 29.3819 18.0435 29.7581 17.6596L30.2304 17.1775C31.369 16.0154 33.3436 16.8216 33.3436 18.4485V19.2967C33.3436 19.8312 33.7769 20.2645 34.3115 20.2645V20.2645C34.5787 20.2645 34.7954 20.4812 34.7954 20.7484V21.7853C34.7954 22.0525 34.5787 22.2692 34.3115 22.2692V22.2692C33.7769 22.2692 33.3436 22.7025 33.3436 23.237V24.2242C33.3436 25.862 31.4505 26.7738 30.1699 25.7529L29.4172 25.1528C29.2533 25.0222 29.07 24.9181 28.8738 24.8444L27.3552 24.2738M27.3552 24.2738H24.4517M27.3552 24.2738L27.0852 27.8165C27.0328 28.5039 26.4597 29.0349 25.7704 29.0349V29.0349C25.0421 29.0349 24.4517 28.4445 24.4517 27.7163V24.9557V24.2738" stroke="white" stroke-width="1.5" stroke-linecap="round"/>
</svg>
