<svg width="50" height="36" viewBox="0 0 50 36" fill="none" xmlns="http://www.w3.org/2000/svg">
<path d="M39.7451 28.2502C39.7451 28.2502 49.8337 28.9492 47.4469 17.5239C45.8296 9.78212 35.8667 10.7743 35.8667 10.7743C35.8667 10.7743 34.9717 6.9297 31.9881 5.53154C29.8246 4.51765 26.0212 5.53154 26.0212 5.53154C26.0212 5.53154 21.5714 1.4816 17.966 2.7355C14.404 3.97426 12.5956 8.25768 11.7005 9.72569C10.8055 11.1937 6.18994 9.93002 3.0485 16.3666C-0.586856 23.8152 7.2254 28.9492 7.2254 28.9492" stroke="white" stroke-width="4" stroke-linecap="round" stroke-linejoin="round"/>
<path d="M10.8062 17.4155V24.7554H35.5689V17.4155H10.8062Z" fill="white" stroke="white" stroke-width="2" stroke-linejoin="round"/>
<path d="M10.8062 27.6602V35H35.5689V27.6602H10.8062Z" fill="white" stroke="white" stroke-width="2" stroke-linejoin="round"/>
<rect x="29.248" y="22.7666" width="5.96692" height="1.39807" rx="0.699034" fill="black"/>
<rect x="29.248" y="33.252" width="5.96692" height="1.39807" rx="0.699034" fill="black"/>
</svg>
