<svg width="51" height="46" viewBox="0 0 51 46" fill="none" xmlns="http://www.w3.org/2000/svg">
<circle cx="16.4123" cy="16.9853" r="16.2282" fill="white"/>
<circle cx="16.4122" cy="16.9854" r="12.6783" fill="black"/>
<path d="M8.49259 13.3813H7.55759V12.6163H12.7936V13.3813H11.7736C11.5356 13.3813 11.3713 13.4436 11.2806 13.5683C11.1786 13.7043 11.1276 13.829 11.1276 13.9423V14.1633L14.3916 21.8133L16.6356 16.4583L17.1286 17.6483L13.9496 25.1963L9.42759 14.1633C9.24625 13.71 8.93459 13.4493 8.49259 13.3813ZM19.1856 25.1963L15.4456 14.1633C15.2869 13.6986 15.0319 13.438 14.6806 13.3813H13.9496V12.6163H18.6076V13.3813H17.7916C17.5536 13.3813 17.3893 13.4436 17.2986 13.5683C17.1966 13.7043 17.1456 13.829 17.1456 13.9423V14.1633L19.5426 21.4393L22.3476 14.1633V13.9593C22.3476 13.846 22.2853 13.7213 22.1606 13.5853C22.0246 13.4493 21.8716 13.3813 21.7016 13.3813H20.6816V12.6163H25.1526V13.3813H24.3026C24.1439 13.3813 23.9683 13.4663 23.7756 13.6363C23.5716 13.8176 23.4356 13.9933 23.3676 14.1633L19.1856 25.1963Z" fill="white"/>
<path d="M48.3548 39.2065L39.1698 31.7084C38.3066 31.0038 37.034 31.1405 36.3401 32.0124L35.253 33.3785C34.5706 34.236 34.7053 35.4829 35.5551 36.1748L44.5908 43.5317C44.7825 43.6878 45.0004 43.8077 45.2397 43.8696C46.0662 44.0834 48.0967 44.4873 48.9326 43.5617C49.7358 42.6725 49.2062 40.8108 48.9004 39.9561C48.7941 39.6592 48.5992 39.406 48.3548 39.2065Z" stroke="white" stroke-width="2"/>
<path d="M32.9482 26.7226L35.2414 28.5117C35.374 28.6152 35.3957 28.8074 35.2895 28.9377L31.9613 33.0238C31.8543 33.1552 31.6597 33.1719 31.5318 33.0607L29.2459 31.0723C29.0694 30.9188 29.1294 30.6303 29.3487 30.5491C31.1407 29.8857 31.9216 29 32.4641 26.8921C32.5189 26.6789 32.7746 26.5872 32.9482 26.7226Z" stroke="white" stroke-width="2"/>
</svg>
