<svg width="49" height="49" viewBox="0 0 49 49" fill="none" xmlns="http://www.w3.org/2000/svg">
<circle cx="24.5" cy="24.5" r="22.5" fill="black" stroke="white" stroke-width="4"/>
<path d="M27.9576 17.3375L29.188 16.5803C30.4433 15.8078 31.9762 15.6308 33.3745 16.0969V16.0969C34.7921 16.5695 35.9233 17.6548 36.4552 19.0512V19.0512C37.1468 20.8667 36.7227 22.9205 35.3669 24.312L29.7729 30.0532C28.7701 31.0823 27.3941 31.6628 25.9572 31.6628H25.8618C24.6634 31.6628 23.5038 31.238 22.5889 30.4639V30.4639C21.4511 29.5012 20.7949 28.0863 20.7949 26.5959V26.555C20.7949 25.5372 21.0962 24.5422 21.6607 23.6954L22.2768 22.7712" stroke="white" stroke-width="3"/>
<path d="M25.2404 26.9702L25.9976 25.7398C26.7701 24.4845 26.9471 22.9516 26.481 21.5533V21.5533C26.0084 20.1357 24.9231 19.0045 23.5267 18.4725V18.4725C21.7112 17.7809 19.6574 18.2051 18.2659 19.5608L12.5247 25.1548C11.4955 26.1576 10.9151 27.5336 10.9151 28.9705V29.0659C10.9151 30.2644 11.3399 31.424 12.114 32.3388V32.3388C13.0767 33.4766 14.4916 34.1328 15.982 34.1328H16.0229C17.0407 34.1328 18.0357 33.8316 18.8825 33.267L19.8067 32.6509" stroke="white" stroke-width="3"/>
</svg>
