<svg width="46" height="50" viewBox="0 0 46 50" fill="none" xmlns="http://www.w3.org/2000/svg">
<path d="M20.4873 2.92383C21.7097 2.15877 23.249 2.11123 24.5166 2.79883L40.9824 11.7324C42.2717 12.432 43.0752 13.7812 43.0752 15.248V33.6904C43.0752 35.0901 42.343 36.3886 41.1455 37.1133L24.6084 47.1211C23.3354 47.8914 21.7399 47.8913 20.4668 47.1211L3.92871 37.1133C2.73129 36.3886 2 35.0901 2 33.6904V16.7129C2 15.3348 2.70985 14.0535 3.87793 13.3223L20.4873 2.92383Z" fill="black" stroke="white" stroke-width="4"/>
<path d="M22.291 11.7656C22.443 11.6714 22.6335 11.6663 22.791 11.751L34.1621 17.8721C34.3237 17.9593 34.4247 18.1279 34.4248 18.3115V30.9219C34.4248 31.0974 34.3321 31.2602 34.1816 31.3506L22.7402 38.2207C22.5818 38.3158 22.384 38.3158 22.2256 38.2207L10.7832 31.3506C10.6329 31.2602 10.541 31.0973 10.541 30.9219V19.3428C10.541 19.1699 10.6305 19.0092 10.7773 18.918L22.291 11.7656Z" fill="black" stroke="white" stroke-width="3"/>
<path d="M21.6223 20.3952L20.9962 25.0345C20.9026 25.7272 21.5306 26.2997 22.2118 26.1427L26.9497 25.0506L21.6223 20.3952Z" fill="black"/>
<path d="M21.6223 20.3952L26.9497 25.0506L40.4573 11.8851L35.5583 6.98611L21.6223 20.3952Z" fill="black"/>
<path d="M42.4949 9.32002C43.0851 6.82139 40.9041 4.54442 38.3824 5.02656L38.2006 5.06132C37.6779 5.16125 37.1955 5.41088 36.812 5.77985L35.5583 6.98611L40.4573 11.8851L41.7637 10.6118C42.1252 10.2594 42.3789 9.81134 42.4949 9.32002V9.32002Z" fill="black"/>
<path d="M21.6223 20.3952L20.9962 25.0345C20.9026 25.7272 21.5306 26.2997 22.2118 26.1427L26.9497 25.0506M21.6223 20.3952L26.9497 25.0506M21.6223 20.3952L35.5583 6.98611M26.9497 25.0506L40.4573 11.8851M35.5583 6.98611L36.812 5.77985C37.1955 5.41088 37.6779 5.16125 38.2006 5.06132L38.3824 5.02656C40.9041 4.54442 43.0851 6.82139 42.4949 9.32002V9.32002C42.3789 9.81134 42.1252 10.2594 41.7637 10.6118L40.4573 11.8851M35.5583 6.98611L40.4573 11.8851" stroke="white" stroke-width="2"/>
</svg>
