<svg width="1365" height="1365" viewBox="0 0 1365 1365" fill="none" xmlns="http://www.w3.org/2000/svg">
<g clip-path="url(#clip0_96_459)">
<rect width="1365" height="1365" rx="682.5" fill="white"/>
<path d="M0 682.333V1365H682.667H1365.33V682.333V-0.333405H682.667H0V682.333ZM531.6 401.667C577.733 408.2 622.933 428.067 660 457.933C671.867 467.533 694.267 490.333 702.8 501.667C732.533 540.467 751.333 586.867 757.333 635.933C759.467 653.267 758.4 697.533 755.333 714.333C753.2 726.6 752.8 727.533 741.867 744.067C724 771.133 665.333 851 636.667 887.667C620.533 908.2 619.6 909.133 608.933 914.867C572.133 935 528.933 944.733 484 943.267C445.6 941.933 413.867 933.933 379.467 916.733C309.333 881.533 255.467 813.533 236.533 736.333C226.533 695.4 226.8 645.267 237.333 603.533C263.867 497 352.667 416.2 458.667 401.667C476.133 399.267 514.933 399.267 531.6 401.667ZM1126.53 402.2C1129.47 403 1129.2 403.667 1118.53 417.667C1091.2 454.067 885.2 728.067 842.4 785L794.8 848.333L938.933 848.733L1082.93 849L1082.13 852.067C1081.73 853.667 1073.6 874.2 1064.13 897.667L1046.8 940.333L832.667 940.733C654.267 941 618.533 940.733 619.067 939.267C619.733 937.533 635.6 915.933 736.267 780.6C757.6 751.933 788.933 709.667 805.867 687C822.667 664.2 862.133 611.267 893.6 569.267C924.933 527.267 950.667 492.6 950.667 492.333C950.667 491.933 898.933 491.533 835.867 491.4C735.333 491 720.8 490.733 719.867 489C717.2 484.333 687.067 402.867 687.6 401.933C688.267 400.733 1122.13 400.867 1126.53 402.2Z" fill="black"/>
<path d="M472.667 486.467C448.933 489.533 423.6 498.467 404.8 510.733C364.267 537.267 337.333 570.867 324.133 611.533C322.533 616.333 320 626.733 318.4 634.867C314.4 654.333 314.133 690.2 317.867 708.333C328.933 763.933 358 805.933 405.2 834.2C450.533 861.533 513.067 866.067 561.333 845.8C592.133 832.733 624.133 806.6 641.467 780.067C655.2 759.133 666.667 730.733 670.8 707.667C673.6 692.333 673.2 648.733 670.267 633.8C662.8 596.733 646.933 567 620 539.8C578.267 497.4 528.533 479.533 472.667 486.467Z" fill="black"/>
</g>
<defs>
<clipPath id="clip0_96_459">
<rect width="1365" height="1365" rx="682.5" fill="white"/>
</clipPath>
</defs>
</svg>
