<svg width="54" height="54" viewBox="0 0 54 54" fill="none" xmlns="http://www.w3.org/2000/svg">
<path d="M39.3496 3.71519L3.84442 37.6551M39.3496 3.71519L50.4161 14.576M39.3496 3.71519L44.5445 2.72842C48.8176 1.91674 52.5075 5.77932 51.5015 10.0109L50.4161 14.576M3.84442 37.6551L2.38909 48.3672C2.20095 49.752 3.455 50.8979 4.81732 50.5859L15.8332 48.0634M3.84442 37.6551L15.8332 48.0634M15.8332 48.0634L50.4161 14.576" stroke="white" stroke-width="4"/>
<path d="M44.9041 39.8506L46.1063 48.7575C46.2933 50.143 45.0374 51.288 43.6751 50.974L34.5754 48.8765M44.9041 39.8506L34.5754 48.8765M44.9041 39.8506L37.1727 32.2132C36.3937 31.4436 35.1406 31.4436 34.3616 32.2132L27.6401 38.8529C26.8604 39.6231 26.8458 40.8774 27.6074 41.6655L34.5754 48.8765" stroke="white" stroke-width="4"/>
<path d="M5.17823 18.2671C5.17823 18.2671 1.74224 12.0099 5.17823 8.84874C8.61422 5.68755 15.507 9.24117 15.507 9.24117M5.17823 18.2671L15.507 9.24117M5.17823 18.2671L12.9097 25.9045C13.6887 26.6741 14.9417 26.6741 15.7208 25.9045L22.4422 19.2648C23.2219 18.4946 23.2365 17.2403 22.4749 16.4522L15.507 9.24117" stroke="white" stroke-width="4"/>
</svg>
