<svg width="48" height="46" viewBox="0 0 48 46" fill="none" xmlns="http://www.w3.org/2000/svg">
<path d="M2.6292 44.0001H16.743C17.0468 44.0001 17.2593 43.6997 17.1582 43.4132C14.6796 36.3941 4.74807 36.4075 2.21467 43.407C2.11052 43.6947 2.32315 44.0001 2.6292 44.0001Z" stroke="white" stroke-width="4"/>
<path d="M11.6538 16.5116V3C11.6538 2.44772 12.1015 2 12.6538 2H45C45.5522 2 46 2.44772 46 3V40.0698C46 40.6221 45.5522 41.0698 45 41.0698H22.0703" stroke="white" stroke-width="4" stroke-linecap="round"/>
<path d="M17.981 18.2697V9.83716C17.981 9.28487 18.4287 8.83716 18.981 8.83716H38.6733C39.2256 8.83716 39.6733 9.28487 39.6733 9.83716V33.2325C39.6733 33.7848 39.2256 34.2325 38.6733 34.2325H24.5598" stroke="white" stroke-width="3" stroke-linecap="round"/>
<path d="M22.5 20.9968L26.7115 26.1946C27.1222 26.7014 27.9003 26.6857 28.2902 26.1627L33.3462 19.3801" stroke="white" stroke-width="2" stroke-linecap="round"/>
<path d="M35.7386 15.3408L34.8647 22.1651L31.1811 17.6675L35.7386 15.3408Z" fill="white"/>
<mask id="path-6-inside-1_31_581" fill="white">
<path d="M16.4615 27.3953C16.4615 31.7108 13.2242 35.2092 9.23077 35.2092C5.23733 35.2092 2 31.7108 2 27.3953C2 23.0797 5.23733 19.5813 9.23077 19.5813C13.2242 19.5813 16.4615 23.0797 16.4615 27.3953ZM4.896 27.3953C4.896 29.9824 6.83674 32.0796 9.23077 32.0796C11.6248 32.0796 13.5655 29.9824 13.5655 27.3953C13.5655 24.8081 11.6248 22.7109 9.23077 22.7109C6.83674 22.7109 4.896 24.8081 4.896 27.3953Z"/>
</mask>
<path d="M16.4615 27.3953C16.4615 31.7108 13.2242 35.2092 9.23077 35.2092C5.23733 35.2092 2 31.7108 2 27.3953C2 23.0797 5.23733 19.5813 9.23077 19.5813C13.2242 19.5813 16.4615 23.0797 16.4615 27.3953ZM4.896 27.3953C4.896 29.9824 6.83674 32.0796 9.23077 32.0796C11.6248 32.0796 13.5655 29.9824 13.5655 27.3953C13.5655 24.8081 11.6248 22.7109 9.23077 22.7109C6.83674 22.7109 4.896 24.8081 4.896 27.3953Z" fill="black" stroke="white" stroke-width="8" mask="url(#path-6-inside-1_31_581)"/>
</svg>
