<svg width="66" height="64" viewBox="0 0 66 64" fill="none" xmlns="http://www.w3.org/2000/svg">
<path d="M27.8219 8.95605H4C2.89543 8.95605 2 9.85149 2 10.9561V59.1493C2 60.2539 2.89543 61.1493 4 61.1493H52.8356C53.9402 61.1493 54.8356 60.2539 54.8356 59.1493V36.4262" stroke="white" stroke-width="4" stroke-linecap="round"/>
<path d="M55.311 3.32471L31.8229 26.1281M55.311 3.32471L62.6319 10.6218M55.311 3.32471L58.6129 2.53246C61.5268 1.83333 64.1464 4.46829 63.4302 7.37802L62.6319 10.6218M31.8229 26.1281L30.9865 32.3806C30.8011 33.767 32.0596 34.9106 33.4219 34.5938L39.754 33.1211M31.8229 26.1281L39.754 33.1211M39.754 33.1211L62.6319 10.6218" stroke="white" stroke-width="4"/>
<mask id="path-3-inside-1_30_644" fill="white">
<ellipse cx="13.1232" cy="43.0981" rx="3.9726" ry="3.9243"/>
</mask>
<ellipse cx="13.1232" cy="43.0981" rx="3.9726" ry="3.9243" fill="white"/>
<path d="M17.0958 43.0981H13.0958C13.0958 43.0948 13.0963 43.0874 13.0983 43.0776C13.1003 43.0681 13.1032 43.0591 13.1065 43.0512C13.1131 43.0359 13.1195 43.0291 13.1212 43.0274C13.1229 43.0257 13.1247 43.0244 13.1275 43.0233C13.1292 43.0225 13.1306 43.0221 13.1313 43.022C13.1322 43.0218 13.1299 43.0224 13.1232 43.0224V47.0224V51.0224C17.4801 51.0224 21.0958 47.5206 21.0958 43.0981H17.0958ZM13.1232 47.0224V43.0224C13.1165 43.0224 13.1142 43.0218 13.1152 43.022C13.1158 43.0221 13.1173 43.0225 13.119 43.0233C13.1218 43.0244 13.1235 43.0257 13.1253 43.0274C13.127 43.0291 13.1334 43.0359 13.1399 43.0512C13.1433 43.0591 13.1462 43.0681 13.1482 43.0776C13.1502 43.0874 13.1506 43.0948 13.1506 43.0981H9.15063H5.15063C5.15063 47.5206 8.76636 51.0224 13.1232 51.0224V47.0224ZM9.15063 43.0981H13.1506C13.1506 43.1015 13.1502 43.1088 13.1482 43.1186C13.1462 43.1282 13.1433 43.1372 13.1399 43.145C13.1334 43.1603 13.127 43.1672 13.1253 43.1689C13.1235 43.1706 13.1218 43.1718 13.119 43.173C13.1173 43.1737 13.1158 43.1741 13.1152 43.1743C13.1142 43.1744 13.1165 43.1738 13.1232 43.1738V39.1738V35.1738C8.76636 35.1738 5.15063 38.6757 5.15063 43.0981H9.15063ZM13.1232 39.1738V43.1738C13.1299 43.1738 13.1322 43.1744 13.1313 43.1743C13.1306 43.1741 13.1292 43.1737 13.1275 43.173C13.1247 43.1718 13.1229 43.1706 13.1212 43.1689C13.1195 43.1672 13.1131 43.1603 13.1065 43.145C13.1032 43.1372 13.1003 43.1282 13.0983 43.1186C13.0963 43.1088 13.0958 43.1015 13.0958 43.0981H17.0958H21.0958C21.0958 38.6757 17.4801 35.1738 13.1232 35.1738V39.1738Z" fill="white" mask="url(#path-3-inside-1_30_644)"/>
<mask id="path-5-inside-2_30_644" fill="white">
<ellipse cx="25.0412" cy="43.0981" rx="3.9726" ry="3.9243"/>
</mask>
<ellipse cx="25.0412" cy="43.0981" rx="3.9726" ry="3.9243" fill="white"/>
<path d="M29.0138 43.0981H25.0138C25.0138 43.0948 25.0142 43.0874 25.0163 43.0776C25.0182 43.0681 25.0211 43.0591 25.0245 43.0512C25.031 43.0359 25.0374 43.0291 25.0392 43.0274C25.0409 43.0257 25.0426 43.0244 25.0454 43.0233C25.0471 43.0225 25.0486 43.0221 25.0493 43.022C25.0502 43.0218 25.0479 43.0224 25.0412 43.0224V47.0224V51.0224C29.3981 51.0224 33.0138 47.5206 33.0138 43.0981H29.0138ZM25.0412 47.0224V43.0224C25.0345 43.0224 25.0322 43.0218 25.0331 43.022C25.0338 43.0221 25.0353 43.0225 25.037 43.0233C25.0398 43.0244 25.0415 43.0257 25.0432 43.0274C25.045 43.0291 25.0514 43.0359 25.0579 43.0512C25.0613 43.0591 25.0642 43.0681 25.0662 43.0776C25.0682 43.0874 25.0686 43.0948 25.0686 43.0981H21.0686H17.0686C17.0686 47.5206 20.6843 51.0224 25.0412 51.0224V47.0224ZM21.0686 43.0981H25.0686C25.0686 43.1015 25.0682 43.1088 25.0662 43.1186C25.0642 43.1282 25.0613 43.1372 25.0579 43.145C25.0514 43.1603 25.045 43.1672 25.0432 43.1689C25.0415 43.1706 25.0398 43.1718 25.037 43.173C25.0353 43.1737 25.0338 43.1741 25.0331 43.1743C25.0322 43.1744 25.0345 43.1738 25.0412 43.1738V39.1738V35.1738C20.6843 35.1738 17.0686 38.6757 17.0686 43.0981H21.0686ZM25.0412 39.1738V43.1738C25.0479 43.1738 25.0502 43.1744 25.0493 43.1743C25.0486 43.1741 25.0471 43.1737 25.0454 43.173C25.0426 43.1718 25.0409 43.1706 25.0392 43.1689C25.0374 43.1672 25.031 43.1603 25.0245 43.145C25.0211 43.1372 25.0182 43.1282 25.0163 43.1186C25.0142 43.1088 25.0138 43.1015 25.0138 43.0981H29.0138H33.0138C33.0138 38.6757 29.3981 35.1738 25.0412 35.1738V39.1738Z" fill="white" mask="url(#path-5-inside-2_30_644)"/>
</svg>
