<svg width="37" height="50" viewBox="0 0 37 50" fill="none" xmlns="http://www.w3.org/2000/svg">
<path d="M3 48H33.987C34.5444 48 34.9941 47.5444 34.987 46.9871L34.902 40.3851L34.4861 8.06081V3C34.4861 2.44772 34.0383 2 33.4861 2H25.0112H15.6143H7.62332H3C2.44772 2 2 2.44356 2 2.99584V40.3851V47.0013C2 47.5535 2.44771 48 3 48Z" stroke="white" stroke-width="4" stroke-linecap="round"/>
<path d="M7 22.5H29.0711" stroke="white" stroke-width="2" stroke-linecap="round"/>
<path d="M7 26.5H29.0711" stroke="white" stroke-width="2" stroke-linecap="round"/>
<path d="M7 31H22.765" stroke="white" stroke-width="2" stroke-linecap="round"/>
<path d="M25.2095 9.2168L27.7019 11.7663C28.0818 12.1549 28.0818 12.7758 27.7019 13.1644L25.2095 15.7139" stroke="white" stroke-width="2" stroke-linecap="round"/>
<path d="M11.1757 9.2168L8.68336 11.7663C8.30347 12.1549 8.30347 12.7758 8.68336 13.1644L11.1757 15.7139" stroke="white" stroke-width="2" stroke-linecap="round"/>
<path d="M16.1758 16.1468L20.2095 9" stroke="white" stroke-width="2" stroke-linecap="round"/>
</svg>
