<svg width="37" height="50" viewBox="0 0 37 50" fill="none" xmlns="http://www.w3.org/2000/svg">
<path d="M22.5 2H15.6143H7.62332H3C2.44772 2 2 2.44356 2 2.99584C2 7.6087 2 27.2322 2 40.3851C2 42.505 2 45.472 2 47.0013C2 47.5535 2.44771 48 3 48H33.987C34.5444 48 34.9941 47.5444 34.987 46.9871L34.902 40.3851C34.902 40.3851 34.6624 24.1234 34.5 11.5M22.5 2V10.5C22.5 11.0523 22.9477 11.5 23.5 11.5H34.5M22.5 2L34.5 11.5" stroke="white" stroke-width="4" stroke-linecap="round"/>
<circle cx="14.5754" cy="22.5754" r="7.57541" fill="white"/>
<circle cx="14.5755" cy="22.5755" r="5.91829" fill="black"/>
<path d="M29.2882 32.7867L25.5182 29.709C24.9395 29.2366 24.0863 29.3283 23.6211 29.9128C23.1637 30.4877 23.254 31.3236 23.8237 31.7875L27.5747 34.8416C27.7664 34.9976 27.9845 35.1196 28.2263 35.1708C28.6748 35.2659 29.421 35.3525 29.7561 34.9815C30.0664 34.638 29.9506 33.9835 29.8205 33.5419C29.7314 33.2394 29.5325 32.9861 29.2882 32.7867Z" stroke="white"/>
<path d="M22.4935 27.2762L23.2361 27.8555C23.3687 27.959 23.3904 28.1512 23.2842 28.2815L21.9381 29.9342C21.831 30.0656 21.6365 30.0823 21.5086 29.9711L20.7807 29.3379C20.6042 29.1844 20.6645 28.8967 20.877 28.7989C21.4668 28.5274 21.7791 28.1557 21.9998 27.4433C22.065 27.233 22.32 27.1408 22.4935 27.2762Z" stroke="white"/>
<path d="M11 20H18" stroke="white" stroke-width="1.5" stroke-linecap="round"/>
<path d="M11 22.5H18" stroke="white" stroke-width="1.5" stroke-linecap="round"/>
<path d="M11 25H15" stroke="white" stroke-width="1.5" stroke-linecap="round"/>
</svg>
