<svg width="47" height="45" viewBox="0 0 47 45" fill="none" xmlns="http://www.w3.org/2000/svg">
<rect x="2.54736" y="2" width="42" height="41" rx="3" fill="black" stroke="white" stroke-width="4"/>
<path d="M26.5107 12.1358C24.7454 11.6035 22.9016 12.6828 22.3979 14.5483L22.1345 15.525C21.9635 16.1598 21.6539 16.7458 21.2333 17.2342L18.8627 19.9885C18.4514 20.467 18.4837 21.2093 18.9366 21.6439C19.3895 22.0786 20.0919 22.0444 20.5032 21.5658L22.8738 18.8115C23.5254 18.0546 24.0014 17.1512 24.2648 16.1696L24.5282 15.1929C24.6946 14.5727 25.3092 14.2113 25.9007 14.3871C26.4922 14.5629 26.8296 15.2124 26.6632 15.8375L26.3998 16.8142C26.1364 17.786 25.7205 18.7041 25.1706 19.5245C24.9303 19.881 24.9025 20.3498 25.092 20.7405C25.2815 21.1312 25.6604 21.3754 26.0763 21.3754H32.2502C32.6569 21.3754 32.9896 21.727 32.9896 22.1567C32.9896 22.4888 32.7909 22.7769 32.509 22.8892C32.167 23.026 31.9082 23.3287 31.8204 23.7048C31.7326 24.0808 31.825 24.4764 32.0653 24.7645C32.1809 24.9012 32.2502 25.0819 32.2502 25.2821C32.2502 25.663 31.9914 25.9805 31.6494 26.0488C31.2705 26.127 30.9516 26.4053 30.8176 26.7911C30.6836 27.1769 30.7437 27.6067 30.984 27.929C31.081 28.0608 31.1411 28.2269 31.1411 28.4124C31.1411 28.7396 30.947 29.0277 30.6698 29.1401C30.1383 29.3598 29.8518 29.9654 30.0043 30.5465C30.0228 30.61 30.032 30.6832 30.032 30.7565C30.032 31.1862 29.6993 31.5378 29.2926 31.5378H24.787C24.2047 31.5378 23.6317 31.3572 23.1465 31.0153L20.2952 29.0082C19.7869 28.6468 19.0984 28.7933 18.7564 29.3354C18.4144 29.8775 18.5531 30.6002 19.066 30.9616L21.9173 32.9687C22.7676 33.5694 23.7657 33.8868 24.787 33.8868H29.2926C30.8962 33.8868 32.1994 32.539 32.2502 30.859C32.9249 30.2877 33.3593 29.4087 33.3593 28.4173C33.3593 28.1976 33.3362 27.9876 33.2992 27.7825C34.0109 27.2111 34.4684 26.3077 34.4684 25.2919C34.4684 24.9745 34.4221 24.6668 34.339 24.3787C34.875 23.8024 35.2077 23.0211 35.2077 22.1567C35.2077 20.4328 33.8861 19.0313 32.2502 19.0313H27.9849C28.2021 18.5234 28.3869 17.996 28.5302 17.4588L28.7936 16.4821C29.2973 14.6166 28.276 12.6681 26.5107 12.1358ZM13.0261 19.8126C12.2082 19.8126 11.5474 20.511 11.5474 21.3754V32.3143C11.5474 33.1787 12.2082 33.877 13.0261 33.877H15.9837C16.8016 33.877 17.4625 33.1787 17.4625 32.3143V21.3754C17.4625 20.511 16.8016 19.8126 15.9837 19.8126H13.0261Z" fill="white"/>
<path d="M12.4223 15.2163L15.9363 17.1858C16.0821 17.2675 16.2524 17.2879 16.4126 17.2427C16.5728 17.1975 16.7106 17.0902 16.7981 16.9427L18.9058 13.3876C19.2607 12.7908 19.3628 12.0653 19.1898 11.3858L19.1656 11.2908C18.8743 10.1463 17.8403 9.39196 16.7206 9.50595C15.9796 9.58157 15.32 10.0291 14.9487 10.7059L14.8121 10.9551L14.5754 10.8112C13.9324 10.4205 13.1485 10.3801 12.4709 10.7046C11.4471 11.1952 10.9099 12.3926 11.2013 13.5372L11.2255 13.6322C11.3984 14.3117 11.8315 14.8863 12.4223 15.2163Z" fill="white"/>
<path d="M13.2742 14.7636L15.8034 16.1576C15.9083 16.2154 16.0311 16.2295 16.1467 16.1969C16.2623 16.1643 16.3619 16.0875 16.4253 15.9822L17.9536 13.4438C18.2109 13.0177 18.2862 12.5006 18.1631 12.0169L18.1459 11.9493C17.9385 11.1346 17.1947 10.5999 16.3871 10.6841C15.8526 10.7399 15.3759 11.0605 15.1066 11.5436L15.0075 11.7215L14.8372 11.6196C14.3744 11.3429 13.8093 11.3162 13.3199 11.5492C12.5805 11.9014 12.1903 12.7559 12.3977 13.5706L12.4149 13.6382C12.538 14.1218 12.8489 14.5301 13.2742 14.7636Z" fill="black"/>
<path d="M36.9683 7.99703C37.2896 8.15083 37.4322 8.55063 37.2861 8.8886L36.7924 10.0307L38.63 10.5491L39.2109 9.20269C39.357 8.86471 39.7369 8.71472 40.0582 8.86852C40.3794 9.02232 40.522 9.42211 40.3759 9.76009L39.8841 10.9028L41.0088 11.22C41.3508 11.3164 41.5531 11.6851 41.4615 12.045C41.3699 12.4049 41.0195 12.6177 40.6775 12.5212L39.3461 12.1457L38.2721 14.6322L39.3967 14.9494C39.7387 15.0459 39.941 15.4145 39.8494 15.7744C39.7578 16.1343 39.4075 16.3471 39.0654 16.2507L37.7341 15.8751L37.1532 17.2215C37.0071 17.5595 36.6272 17.7095 36.3059 17.5557C35.9847 17.4019 35.8421 17.0021 35.9882 16.6641L36.4814 15.524L34.6437 15.0057L34.0628 16.352C33.9167 16.69 33.5368 16.84 33.2156 16.6862C32.8944 16.5324 32.7518 16.1326 32.8979 15.7947L33.3882 14.6494L32.2636 14.3322C31.9216 14.2357 31.7193 13.867 31.8109 13.5071C31.9025 13.1473 32.2528 12.9344 32.5948 13.0309L33.9262 13.4064L35.0003 10.92L33.8757 10.6028C33.5337 10.5063 33.3313 10.1376 33.423 9.77773C33.5146 9.41785 33.8649 9.20503 34.2069 9.3015L35.5383 9.67702L36.1192 8.33066C36.2653 7.99268 36.6452 7.84269 36.9664 7.99649L36.9683 7.99703ZM36.2544 11.2737L35.1803 13.7602L37.018 14.2785L38.092 11.792L36.2544 11.2737Z" fill="white"/>
</svg>
