<svg width="50" height="39" viewBox="0 0 50 39" fill="none" xmlns="http://www.w3.org/2000/svg">
<path d="M2 10.4483V4C2 2.89543 2.89543 2 4 2H16.1067M30.2133 10.4483V4C30.2133 2.89543 29.3179 2 28.2133 2H16.1067M16.1067 2V35C16.1067 36.1046 15.2112 37 14.1067 37H9.66667H22.5467" stroke="white" stroke-width="4" stroke-linecap="round"/>
<path d="M30.2139 20.5194V17.2756C30.2139 16.1711 31.1093 15.2756 32.2139 15.2756H39.1072M48.0005 20.5194V17.2756C48.0005 16.1711 47.1051 15.2756 46.0005 15.2756H39.1072M39.1072 15.2756V34.9998C39.1072 36.1043 38.2118 36.9998 37.1072 36.9998H35.0472H43.1672" stroke="white" stroke-width="4" stroke-linecap="round"/>
</svg>
