<svg width="66" height="65" viewBox="0 0 66 65" fill="none" xmlns="http://www.w3.org/2000/svg">
<path d="M27.8219 10.0264H4C2.89543 10.0264 2 10.9218 2 12.0264V60.2196C2 61.3242 2.89543 62.2196 4 62.2196H52.8356C53.9402 62.2196 54.8356 61.3242 54.8356 60.2196V37.4965" stroke="white" stroke-width="4" stroke-linecap="round"/>
<path d="M27.6165 19H13C11.8954 19 11 19.8954 11 21V50C11 51.1046 11.8954 52 13 52H43C44.1046 52 45 51.1046 45 50V36.3684" stroke="white" stroke-width="4" stroke-linecap="round"/>
<path d="M53.2466 3.35458L22.6575 32.7869M53.2466 3.35458L62.7808 12.7729M53.2466 3.35458L56.467 2.73885C60.7385 1.92217 64.4328 5.77904 63.4331 10.0114L62.7808 12.7729M22.6575 32.7869L21.4553 41.6938C21.2683 43.0793 22.5242 44.2242 23.8866 43.9102L32.9863 41.8128M22.6575 32.7869L32.9863 41.8128M32.9863 41.8128L62.7808 12.7729" stroke="white" stroke-width="4"/>
</svg>
