<svg width="51" height="38" viewBox="0 0 51 38" fill="none" xmlns="http://www.w3.org/2000/svg">
<path d="M28 17.6667C28 13.0065 28 7.04805 28 3.99701C28 2.89244 27.1046 2 26 2H4C2.89543 2 2 2.89543 2 4V26C2 27.1046 2.89543 28 4 28H21.5" stroke="white" stroke-width="4" stroke-linecap="round" stroke-linejoin="round"/>
<path d="M28.2332 21.305C28.2332 20.2004 27.3377 19.305 26.2332 19.305H20.533L20.2727 26.5514C20.232 27.6834 21.1387 28.6232 22.2714 28.6232H22.8765H28.2332V21.305Z" fill="white"/>
<path d="M20.533 19.305H26.2332C27.3377 19.305 28.2332 20.2004 28.2332 21.305V28.6232M20.533 19.305L20.2727 26.5514C20.232 27.6834 21.1387 28.6232 22.2714 28.6232H22.8765M20.533 19.305H30.8412C31.3186 19.305 31.7803 19.1342 32.1428 18.8235L35.9795 15.5347C37.2769 14.4226 39.2811 15.3444 39.2811 17.0532V20.6255C39.2811 21.6116 40.0806 22.4111 41.0667 22.4111V22.4111C41.5597 22.4111 41.9595 22.8108 41.9595 23.3038V24.6244C41.9595 25.1174 41.5597 25.5171 41.0667 25.5171V25.5171C40.0806 25.5171 39.2811 26.3165 39.2811 27.3027V31.0893C39.2811 32.6885 37.4973 33.6409 36.1684 32.7512L31.8189 29.8389C31.6611 29.7332 31.4891 29.6506 31.308 29.5935L28.2332 28.6232M28.2332 28.6232H22.8765M28.2332 28.6232L27.7287 34.1809C27.6352 35.2112 26.7714 36.0001 25.7369 36.0001H24.8765C23.772 36.0001 22.8765 35.1047 22.8765 34.0001V29.6796V28.6232" stroke="white" stroke-width="3" stroke-linecap="round"/>
<path d="M46.4399 19.0581L49.0001 16.9403" stroke="white" stroke-width="3" stroke-linecap="round" stroke-linejoin="round"/>
<path d="M46.4399 23.2935H49.0001" stroke="white" stroke-width="3" stroke-linecap="round" stroke-linejoin="round"/>
<path d="M46.4399 27.5291L48.36 29.6468" stroke="white" stroke-width="3" stroke-linecap="round" stroke-linejoin="round"/>
<path d="M19.5 14.634C20.1667 15.0189 20.1667 15.9811 19.5 16.366L12.75 20.2631C12.0833 20.648 11.25 20.1669 11.25 19.3971V11.6029C11.25 10.8331 12.0833 10.352 12.75 10.7369L19.5 14.634Z" fill="white"/>
</svg>
