<svg width="49" height="43" viewBox="0 0 49 43" fill="none" xmlns="http://www.w3.org/2000/svg">
<path d="M39.9789 40.9516H3C2.44771 40.9516 2 40.5039 2 39.9516V11.2742M2 11.2742V3C2 2.44771 2.44772 2 3 2H38.9789C39.5312 2 39.9789 2.44772 39.9789 3V11.2742M2 11.2742H20.9894H39.9789M39.9789 11.2742V18.3226" stroke="white" stroke-width="4" stroke-linecap="round"/>
<path d="M45.4729 31.7512L44.9607 31.3915C44.5428 31.0981 44.3851 30.4459 44.614 29.9638C44.7293 29.7209 44.9249 29.5646 45.1641 29.515L45.6674 29.3824C46.1673 29.2475 46.4502 28.6516 46.2963 28.0577L45.9431 26.6911C45.8741 26.42 45.7019 26.1675 45.4795 26.0114C45.2571 25.8552 44.9945 25.8025 44.7636 25.863L44.2774 25.9974C44.0356 26.0807 43.7848 26.0412 43.5657 25.8874C43.1344 25.5846 42.9612 24.9366 43.1829 24.4697L43.4586 23.889C43.7019 23.3765 43.5436 22.6783 43.0853 22.3565L42.0608 21.6372C41.6025 21.3154 41.0312 21.4964 40.7862 22.0126L40.5122 22.5896C40.2906 23.0565 39.7426 23.1981 39.3112 22.8952C39.0955 22.7438 38.9453 22.5017 38.8851 22.2216L38.7313 21.6277C38.6641 21.3527 38.4901 21.104 38.2676 20.9479C38.0452 20.7917 37.7827 20.739 37.5517 20.7995L36.397 21.1022C35.9005 21.2395 35.6176 21.8354 35.7699 22.4232L35.9173 23.0024C36.0047 23.2915 35.9909 23.5855 35.8756 23.8285C35.6449 24.3143 35.1034 24.4706 34.6855 24.1772L34.1733 23.8176C33.7116 23.4934 33.1312 23.6275 32.8861 24.1437L32.6122 24.7207L32.3383 25.2977C32.095 25.8101 32.2879 26.4922 32.7496 26.8163L33.2618 27.176C33.6797 27.4694 33.8374 28.1216 33.6085 28.6037C33.4932 28.8466 33.2907 29.0081 33.0411 29.0606L32.5567 29.1912C32.0602 29.3285 31.7772 29.9244 31.9296 30.5122L32.281 31.8825C32.3482 32.1574 32.5222 32.4061 32.7446 32.5623C32.967 32.7185 33.2296 32.7712 33.4605 32.7107L33.9604 32.5758C34.1866 32.4967 34.4375 32.5362 34.6532 32.6876C35.0845 32.9905 35.2577 33.6385 35.036 34.1053L34.7621 34.6823C34.5188 35.1948 34.6738 35.8906 35.1354 36.2148L36.1599 36.9341C36.6182 37.2559 37.1895 37.0749 37.4345 36.5587L37.7085 35.9817C37.9301 35.5148 38.4781 35.3732 38.9095 35.6761C39.1252 35.8275 39.2769 36.0757 39.3436 36.3706L39.491 36.9498C39.5634 37.2233 39.7322 37.4734 39.9546 37.6296C40.177 37.7857 40.4396 37.8385 40.6705 37.7779L41.8221 37.4629C42.3186 37.3256 42.6016 36.7297 42.4511 36.1381L42.2938 35.5419C42.2095 35.2651 42.2249 34.9772 42.3384 34.7381C42.5691 34.2522 43.1106 34.0959 43.5285 34.3893L44.0407 34.749C44.499 35.0708 45.0187 34.8941 45.2638 34.3779L45.5396 33.7971L45.8135 33.2201C46.0653 32.7086 45.9312 32.073 45.4729 31.7512ZM41.8056 31.1755C41.0108 32.8494 39.1608 33.3675 37.6679 32.3193C36.175 31.2711 35.6188 29.0636 36.4136 27.3897C37.2083 25.7157 39.0584 25.1977 40.5513 26.2459C42.0442 27.2941 42.6003 29.5015 41.8056 31.1755Z" fill="white"/>
<path d="M5.67725 4.8811L8.24028 7.93538" stroke="white" stroke-width="0.5" stroke-linecap="round"/>
<path d="M8.20996 4.88159L5.64714 7.93561" stroke="white" stroke-width="0.5" stroke-linecap="round"/>
<path d="M12.3185 5.70972H10.4507V7.93552H12.3185V5.70972Z" stroke="white" stroke-width="0.7" stroke-linejoin="round"/>
<path d="M14.186 6.82275L16.6765 6.82275" stroke="white" stroke-width="0.5" stroke-linecap="round" stroke-linejoin="round"/>
<path d="M8.57812 18.5H31.6027" stroke="white" stroke-width="2" stroke-linecap="round"/>
<path d="M8.57812 22.5H31.6027" stroke="white" stroke-width="2" stroke-linecap="round"/>
<path d="M8.57812 27H25.0243" stroke="white" stroke-width="2" stroke-linecap="round"/>
</svg>
